<svg xmlns="http://www.w3.org/2000/svg" xmlns:xlink="http://www.w3.org/1999/xlink" width="1440" zoomAndPan="magnify" viewBox="0 0 1080 809.999993" height="1080" preserveAspectRatio="xMidYMid meet" version="1.0"><defs><filter x="0%" y="0%" width="100%" height="100%" id="e600a8d59b"><feColorMatrix values="0 0 0 0 1 0 0 0 0 1 0 0 0 0 1 0 0 0 1 0" color-interpolation-filters="sRGB"/></filter><filter x="0%" y="0%" width="100%" height="100%" id="79f7d06d26"><feColorMatrix values="0 0 0 0 1 0 0 0 0 1 0 0 0 0 1 0.2126 0.7152 0.0722 0 0" color-interpolation-filters="sRGB"/></filter><clipPath id="7ce400bacf"><path d="M 0 1 L 648 1 L 648 649 L 0 649 Z M 0 1 " clip-rule="nonzero"/></clipPath><clipPath id="ead693257b"><rect x="0" width="648" y="0" height="650"/></clipPath><clipPath id="d08a627e15"><path d="M 0 0.230469 L 648 0.230469 L 648 250 L 0 250 Z M 0 0.230469 " clip-rule="nonzero"/></clipPath><mask id="8a2a5f5cc2"><g filter="url(#e600a8d59b)"><g filter="url(#79f7d06d26)" transform="matrix(0.203709, 0, 0, 0.203623, -0.0000062, 0.232126)"></g></g></mask><clipPath id="c8154202e9"><rect x="0" width="648" y="0" height="251"/></clipPath><clipPath id="7fe81d91cc"><path d="M 343 203 L 999 203 L 999 776 L 343 776 Z M 343 203 " clip-rule="nonzero"/></clipPath><clipPath id="313154e592"><path d="M 307.96875 317.957031 L 990.4375 193.367188 L 1080.273438 685.484375 L 397.804688 810.074219 Z M 307.96875 317.957031 " clip-rule="nonzero"/></clipPath><clipPath id="227edef7e8"><path d="M 307.96875 317.957031 L 990.4375 193.367188 L 1080.273438 685.484375 L 397.804688 810.074219 Z M 307.96875 317.957031 " clip-rule="nonzero"/></clipPath></defs><g transform="matrix(1, 0, 0, 1, 216, 80)"><g clip-path="url(#ead693257b)"><path fill="#ffffff" d="M 0 1 L 648 1 L 648 649 L 0 649 Z M 0 1 " fill-opacity="1" fill-rule="nonzero"/><path fill="#ffffff" d="M 0 16.429688 L 216 16.429688 M 277.714844 16.429688 L 308.570312 16.429688 M 339.429688 16.429688 L 370.285156 16.429688 M 432 16.429688 L 648 16.429688 M 0 47.285156 L 30.855469 47.285156 M 185.144531 47.285156 L 216 47.285156 M 432 47.285156 L 462.855469 47.285156 M 617.144531 47.285156 L 648 47.285156 M 0 78.144531 L 30.855469 78.144531 M 61.714844 78.144531 L 154.285156 78.144531 M 185.144531 78.144531 L 216 78.144531 M 246.855469 78.144531 L 339.429688 78.144531 M 370.285156 78.144531 L 401.144531 78.144531 M 432 78.144531 L 462.855469 78.144531 M 493.714844 78.144531 L 586.285156 78.144531 M 617.144531 78.144531 L 648 78.144531 M 0 109 L 30.855469 109 M 61.714844 109 L 154.285156 109 M 185.144531 109 L 216 109 M 246.855469 109 L 308.570312 109 M 370.285156 109 L 401.144531 109 M 432 109 L 462.855469 109 M 493.714844 109 L 586.285156 109 M 617.144531 109 L 648 109 M 0 139.855469 L 30.855469 139.855469 M 61.714844 139.855469 L 154.285156 139.855469 M 185.144531 139.855469 L 216 139.855469 M 246.855469 139.855469 L 308.570312 139.855469 M 370.285156 139.855469 L 401.144531 139.855469 M 432 139.855469 L 462.855469 139.855469 M 493.714844 139.855469 L 586.285156 139.855469 M 617.144531 139.855469 L 648 139.855469 M 0 170.714844 L 30.855469 170.714844 M 185.144531 170.714844 L 216 170.714844 M 246.855469 170.714844 L 277.714844 170.714844 M 370.285156 170.714844 L 401.144531 170.714844 M 432 170.714844 L 462.855469 170.714844 M 617.144531 170.714844 L 648 170.714844 M 0 201.570312 L 216 201.570312 M 246.855469 201.570312 L 277.714844 201.570312 M 308.570312 201.570312 L 339.429688 201.570312 M 370.285156 201.570312 L 401.144531 201.570312 M 432 201.570312 L 648 201.570312 M 246.855469 232.429688 L 308.570312 232.429688 M 339.429688 232.429688 L 370.285156 232.429688 M 0 263.285156 L 30.855469 263.285156 M 61.714844 263.285156 L 216 263.285156 M 277.714844 263.285156 L 308.570312 263.285156 M 339.429688 263.285156 L 401.144531 263.285156 M 432 263.285156 L 586.285156 263.285156 M 92.570312 294.144531 L 123.429688 294.144531 M 154.285156 294.144531 L 185.144531 294.144531 M 246.855469 294.144531 L 277.714844 294.144531 M 308.570312 294.144531 L 339.429688 294.144531 M 401.144531 294.144531 L 524.570312 294.144531 M 555.429688 294.144531 L 586.285156 294.144531 M 617.144531 294.144531 L 648 294.144531 M 0 325 L 30.855469 325 M 61.714844 325 L 92.570312 325 M 123.429688 325 L 154.285156 325 M 185.144531 325 L 216 325 M 277.714844 325 L 462.855469 325 M 524.570312 325 L 555.429688 325 M 586.285156 325 L 617.144531 325 M 61.714844 355.855469 L 154.285156 355.855469 M 216 355.855469 L 246.855469 355.855469 M 277.714844 355.855469 L 339.429688 355.855469 M 401.144531 355.855469 L 432 355.855469 M 462.855469 355.855469 L 648 355.855469 M 30.855469 386.714844 L 61.714844 386.714844 M 92.570312 386.714844 L 123.429688 386.714844 M 154.285156 386.714844 L 216 386.714844 M 308.570312 386.714844 L 370.285156 386.714844 M 432 386.714844 L 493.714844 386.714844 M 246.855469 417.570312 L 339.429688 417.570312 M 401.144531 417.570312 L 462.855469 417.570312 M 493.714844 417.570312 L 524.570312 417.570312 M 555.429688 417.570312 L 586.285156 417.570312 M 617.144531 417.570312 L 648 417.570312 M 0 448.429688 L 216 448.429688 M 277.714844 448.429688 L 401.144531 448.429688 M 432 448.429688 L 462.855469 448.429688 M 524.570312 448.429688 L 555.429688 448.429688 M 586.285156 448.429688 L 617.144531 448.429688 M 0 479.285156 L 30.855469 479.285156 M 185.144531 479.285156 L 216 479.285156 M 246.855469 479.285156 L 308.570312 479.285156 M 339.429688 479.285156 L 401.144531 479.285156 M 555.429688 479.285156 L 586.285156 479.285156 M 617.144531 479.285156 L 648 479.285156 M 0 510.144531 L 30.855469 510.144531 M 61.714844 510.144531 L 154.285156 510.144531 M 185.144531 510.144531 L 216 510.144531 M 246.855469 510.144531 L 277.714844 510.144531 M 308.570312 510.144531 L 339.429688 510.144531 M 370.285156 510.144531 L 401.144531 510.144531 M 432 510.144531 L 524.570312 510.144531 M 586.285156 510.144531 L 648 510.144531 M 0 541 L 30.855469 541 M 61.714844 541 L 154.285156 541 M 185.144531 541 L 216 541 M 246.855469 541 L 277.714844 541 M 401.144531 541 L 462.855469 541 M 493.714844 541 L 555.429688 541 M 0 571.855469 L 30.855469 571.855469 M 61.714844 571.855469 L 154.285156 571.855469 M 185.144531 571.855469 L 216 571.855469 M 246.855469 571.855469 L 277.714844 571.855469 M 308.570312 571.855469 L 401.144531 571.855469 M 432 571.855469 L 462.855469 571.855469 M 0 602.714844 L 30.855469 602.714844 M 185.144531 602.714844 L 216 602.714844 M 339.429688 602.714844 L 370.285156 602.714844 M 401.144531 602.714844 L 432 602.714844 M 462.855469 602.714844 L 586.285156 602.714844 M 0 633.570312 L 216 633.570312 M 246.855469 633.570312 L 277.714844 633.570312 M 339.429688 633.570312 L 493.714844 633.570312 M 586.285156 633.570312 L 617.144531 633.570312 " fill-opacity="1" fill-rule="nonzero"/><g clip-path="url(#7ce400bacf)"><path stroke-linecap="butt" transform="matrix(30.857145, 0, 0, 30.857145, -0.0000062, 1.000016)" fill="none" stroke-linejoin="miter" d="M 0.000000200926 0.500036 L 7 0.500036 M 9.000018 0.500036 L 9.999963 0.500036 M 11.000036 0.500036 L 11.999981 0.500036 M 13.999999 0.500036 L 20.999999 0.500036 M 0.000000200926 1.499981 L 0.999946 1.499981 M 6.000054 1.499981 L 7 1.499981 M 13.999999 1.499981 L 14.999945 1.499981 M 20.000053 1.499981 L 20.999999 1.499981 M 0.000000200926 2.500054 L 0.999946 2.500054 M 2.000018 2.500054 L 4.999982 2.500054 M 6.000054 2.500054 L 7 2.500054 M 7.999946 2.500054 L 11.000036 2.500054 M 11.999981 2.500054 L 13.000054 2.500054 M 13.999999 2.500054 L 14.999945 2.500054 M 16.000017 2.500054 L 18.999981 2.500054 M 20.000053 2.500054 L 20.999999 2.500054 M 0.000000200926 3.499999 L 0.999946 3.499999 M 2.000018 3.499999 L 4.999982 3.499999 M 6.000054 3.499999 L 7 3.499999 M 7.999946 3.499999 L 9.999963 3.499999 M 11.999981 3.499999 L 13.000054 3.499999 M 13.999999 3.499999 L 14.999945 3.499999 M 16.000017 3.499999 L 18.999981 3.499999 M 20.000053 3.499999 L 20.999999 3.499999 M 0.000000200926 4.499945 L 0.999946 4.499945 M 2.000018 4.499945 L 4.999982 4.499945 M 6.000054 4.499945 L 7 4.499945 M 7.999946 4.499945 L 9.999963 4.499945 M 11.999981 4.499945 L 13.000054 4.499945 M 13.999999 4.499945 L 14.999945 4.499945 M 16.000017 4.499945 L 18.999981 4.499945 M 20.000053 4.499945 L 20.999999 4.499945 M 0.000000200926 5.500017 L 0.999946 5.500017 M 6.000054 5.500017 L 7 5.500017 M 7.999946 5.500017 L 9.000018 5.500017 M 11.999981 5.500017 L 13.000054 5.500017 M 13.999999 5.500017 L 14.999945 5.500017 M 20.000053 5.500017 L 20.999999 5.500017 M 0.000000200926 6.499963 L 7 6.499963 M 7.999946 6.499963 L 9.000018 6.499963 M 9.999963 6.499963 L 11.000036 6.499963 M 11.999981 6.499963 L 13.000054 6.499963 M 13.999999 6.499963 L 20.999999 6.499963 M 7.999946 7.500035 L 9.999963 7.500035 M 11.000036 7.500035 L 11.999981 7.500035 M 0.000000200926 8.499981 L 0.999946 8.499981 M 2.000018 8.499981 L 7 8.499981 M 9.000018 8.499981 L 9.999963 8.499981 M 11.000036 8.499981 L 13.000054 8.499981 M 13.999999 8.499981 L 18.999981 8.499981 M 2.999964 9.500053 L 4.000036 9.500053 M 4.999982 9.500053 L 6.000054 9.500053 M 7.999946 9.500053 L 9.000018 9.500053 M 9.999963 9.500053 L 11.000036 9.500053 M 13.000054 9.500053 L 16.999963 9.500053 M 18.000035 9.500053 L 18.999981 9.500053 M 20.000053 9.500053 L 20.999999 9.500053 M 0.000000200926 10.499999 L 0.999946 10.499999 M 2.000018 10.499999 L 2.999964 10.499999 M 4.000036 10.499999 L 4.999982 10.499999 M 6.000054 10.499999 L 7 10.499999 M 9.000018 10.499999 L 14.999945 10.499999 M 16.999963 10.499999 L 18.000035 10.499999 M 18.999981 10.499999 L 20.000053 10.499999 M 2.000018 11.499945 L 4.999982 11.499945 M 7 11.499945 L 7.999946 11.499945 M 9.000018 11.499945 L 11.000036 11.499945 M 13.000054 11.499945 L 13.999999 11.499945 M 14.999945 11.499945 L 20.999999 11.499945 M 0.999946 12.500017 L 2.000018 12.500017 M 2.999964 12.500017 L 4.000036 12.500017 M 4.999982 12.500017 L 7 12.500017 M 9.999963 12.500017 L 11.999981 12.500017 M 13.999999 12.500017 L 16.000017 12.500017 M 7.999946 13.499963 L 11.000036 13.499963 M 13.000054 13.499963 L 14.999945 13.499963 M 16.000017 13.499963 L 16.999963 13.499963 M 18.000035 13.499963 L 18.999981 13.499963 M 20.000053 13.499963 L 20.999999 13.499963 M 0.000000200926 14.500035 L 7 14.500035 M 9.000018 14.500035 L 13.000054 14.500035 M 13.999999 14.500035 L 14.999945 14.500035 M 16.999963 14.500035 L 18.000035 14.500035 M 18.999981 14.500035 L 20.000053 14.500035 M 0.000000200926 15.499981 L 0.999946 15.499981 M 6.000054 15.499981 L 7 15.499981 M 7.999946 15.499981 L 9.999963 15.499981 M 11.000036 15.499981 L 13.000054 15.499981 M 18.000035 15.499981 L 18.999981 15.499981 M 20.000053 15.499981 L 20.999999 15.499981 M 0.000000200926 16.500053 L 0.999946 16.500053 M 2.000018 16.500053 L 4.999982 16.500053 M 6.000054 16.500053 L 7 16.500053 M 7.999946 16.500053 L 9.000018 16.500053 M 9.999963 16.500053 L 11.000036 16.500053 M 11.999981 16.500053 L 13.000054 16.500053 M 13.999999 16.500053 L 16.999963 16.500053 M 18.999981 16.500053 L 20.999999 16.500053 M 0.000000200926 17.499999 L 0.999946 17.499999 M 2.000018 17.499999 L 4.999982 17.499999 M 6.000054 17.499999 L 7 17.499999 M 7.999946 17.499999 L 9.000018 17.499999 M 13.000054 17.499999 L 14.999945 17.499999 M 16.000017 17.499999 L 18.000035 17.499999 M 0.000000200926 18.499944 L 0.999946 18.499944 M 2.000018 18.499944 L 4.999982 18.499944 M 6.000054 18.499944 L 7 18.499944 M 7.999946 18.499944 L 9.000018 18.499944 M 9.999963 18.499944 L 13.000054 18.499944 M 13.999999 18.499944 L 14.999945 18.499944 M 0.000000200926 19.500017 L 0.999946 19.500017 M 6.000054 19.500017 L 7 19.500017 M 11.000036 19.500017 L 11.999981 19.500017 M 13.000054 19.500017 L 13.999999 19.500017 M 14.999945 19.500017 L 18.999981 19.500017 M 0.000000200926 20.499962 L 7 20.499962 M 7.999946 20.499962 L 9.000018 20.499962 M 11.000036 20.499962 L 16.000017 20.499962 M 18.999981 20.499962 L 20.000053 20.499962 " stroke="#37b4b0" stroke-width="1" stroke-opacity="1" stroke-miterlimit="4"/></g></g></g><g transform="matrix(1, 0, 0, 1, 216, 237)"><g clip-path="url(#c8154202e9)"><g clip-path="url(#d08a627e15)"><g mask="url(#8a2a5f5cc2)"><g transform="matrix(0.203709, 0, 0, 0.203623, -0.0000062, 0.232126)"></g></g></g></g></g><g clip-path="url(#7fe81d91cc)"><g clip-path="url(#313154e592)"><g clip-path="url(#227edef7e8)"><path fill="#93d500" d="M 980.753906 209.523438 C 964.171875 198.59375 942.484375 202.273438 929.230469 218.304688 C 892.761719 262.394531 852.554688 305.011719 813.6875 346.203125 C 795.007812 366.003906 775.691406 386.472656 756.933594 406.980469 C 707.65625 460.769531 651.269531 525.855469 606.070312 600.84375 C 594.339844 620.277344 583.757812 639.917969 574.277344 659.496094 C 524.136719 593.300781 468.757812 531.882812 409.125 476.449219 C 393.976562 462.335938 371.367188 461.742188 356.578125 475.066406 C 348.769531 482.117188 343.992188 492.851562 343.902344 503.769531 C 343.804688 514.273438 347.839844 523.816406 355.214844 530.734375 C 429.242188 599.582031 495.035156 675.835938 550.734375 757.265625 C 559.355469 769.859375 574.433594 776.761719 589.21875 774.824219 C 589.824219 774.714844 590.507812 774.660156 591.113281 774.550781 C 604.351562 772.132812 614.90625 762.984375 619.507812 749.78125 C 641.4375 687.304688 677.351562 624.222656 729.390625 557.011719 C 771.8125 502.183594 820.574219 450.503906 867.699219 400.511719 C 875.667969 392.042969 883.703125 383.5625 891.671875 375.09375 C 921.605469 343.171875 956.726562 305.023438 990.140625 264.753906 C 996.570312 256.984375 999.257812 246.980469 997.691406 236.5 C 996.027344 225.484375 989.671875 215.394531 980.753906 209.523438 Z M 980.753906 209.523438 " fill-opacity="1" fill-rule="nonzero"/></g></g></g></svg>